<mxfile host="app.diagrams.net" agent="Mozilla/5.0 (Macintosh; Intel Mac OS X 10.15; rv:134.0) Gecko/20100101 Firefox/134.0" version="26.0.8">
  <diagram name="Seite-1" id="02V03ZENMYdPBihQN7j8">
    <mxGraphModel dx="2914" dy="1025" grid="1" gridSize="10" guides="1" tooltips="1" connect="1" arrows="1" fold="1" page="1" pageScale="1" pageWidth="827" pageHeight="1169" math="0" shadow="0">
      <root>
        <mxCell id="0" />
        <mxCell id="1" parent="0" />
        <mxCell id="aCL9X1JtN5CGsq-b60nl-7" value="Server" style="html=1;whiteSpace=wrap;verticalAlign=top;" vertex="1" parent="1">
          <mxGeometry x="436" y="40" width="240" height="400" as="geometry" />
        </mxCell>
        <mxCell id="aCL9X1JtN5CGsq-b60nl-6" value="«device»&lt;br&gt;&lt;b&gt;Browser&lt;/b&gt;" style="html=1;whiteSpace=wrap;verticalAlign=top;" vertex="1" parent="1">
          <mxGeometry x="70" y="290" width="200" height="140" as="geometry" />
        </mxCell>
        <mxCell id="aCL9X1JtN5CGsq-b60nl-15" style="edgeStyle=orthogonalEdgeStyle;rounded=0;orthogonalLoop=1;jettySize=auto;html=1;entryX=0;entryY=0.5;entryDx=0;entryDy=0;" edge="1" parent="1" source="aCL9X1JtN5CGsq-b60nl-4" target="aCL9X1JtN5CGsq-b60nl-12">
          <mxGeometry relative="1" as="geometry" />
        </mxCell>
        <mxCell id="aCL9X1JtN5CGsq-b60nl-16" value="&lt;div&gt;HTTPS&lt;/div&gt;" style="edgeLabel;html=1;align=center;verticalAlign=middle;resizable=0;points=[];" vertex="1" connectable="0" parent="aCL9X1JtN5CGsq-b60nl-15">
          <mxGeometry x="-0.0105" y="-6" relative="1" as="geometry">
            <mxPoint as="offset" />
          </mxGeometry>
        </mxCell>
        <mxCell id="aCL9X1JtN5CGsq-b60nl-4" value="«Annotation»&lt;b&gt;&lt;br&gt;Frontend&lt;/b&gt; " style="html=1;dropTarget=0;whiteSpace=wrap;" vertex="1" parent="1">
          <mxGeometry x="80" y="330" width="180" height="90" as="geometry" />
        </mxCell>
        <mxCell id="aCL9X1JtN5CGsq-b60nl-5" value="" style="shape=module;jettyWidth=8;jettyHeight=4;" vertex="1" parent="aCL9X1JtN5CGsq-b60nl-4">
          <mxGeometry x="1" width="20" height="20" relative="1" as="geometry">
            <mxPoint x="-27" y="7" as="offset" />
          </mxGeometry>
        </mxCell>
        <mxCell id="aCL9X1JtN5CGsq-b60nl-8" value="deployment" style="shape=umlFrame;whiteSpace=wrap;html=1;pointerEvents=0;width=120;height=30;" vertex="1" parent="1">
          <mxGeometry x="20" y="20" width="790" height="440" as="geometry" />
        </mxCell>
        <mxCell id="aCL9X1JtN5CGsq-b60nl-14" value="&lt;div&gt;HTTPS&lt;/div&gt;" style="edgeStyle=orthogonalEdgeStyle;rounded=0;orthogonalLoop=1;jettySize=auto;html=1;entryX=0.5;entryY=0;entryDx=0;entryDy=0;" edge="1" parent="1" source="aCL9X1JtN5CGsq-b60nl-10" target="aCL9X1JtN5CGsq-b60nl-12">
          <mxGeometry relative="1" as="geometry" />
        </mxCell>
        <mxCell id="aCL9X1JtN5CGsq-b60nl-10" value="«Docker container»&lt;b&gt;&lt;br&gt;Backend&lt;/b&gt;&lt;br&gt;&lt;b&gt;&lt;/b&gt;" style="html=1;dropTarget=0;whiteSpace=wrap;" vertex="1" parent="1">
          <mxGeometry x="466" y="70" width="180" height="90" as="geometry" />
        </mxCell>
        <mxCell id="aCL9X1JtN5CGsq-b60nl-11" value="" style="shape=module;jettyWidth=8;jettyHeight=4;" vertex="1" parent="aCL9X1JtN5CGsq-b60nl-10">
          <mxGeometry x="1" width="20" height="20" relative="1" as="geometry">
            <mxPoint x="-27" y="7" as="offset" />
          </mxGeometry>
        </mxCell>
        <mxCell id="aCL9X1JtN5CGsq-b60nl-12" value="«Docker container»&lt;b&gt;&lt;br&gt;Frontend&lt;/b&gt;&lt;br&gt;&lt;b&gt;&lt;/b&gt;" style="html=1;dropTarget=0;whiteSpace=wrap;" vertex="1" parent="1">
          <mxGeometry x="466" y="330" width="180" height="90" as="geometry" />
        </mxCell>
        <mxCell id="aCL9X1JtN5CGsq-b60nl-13" value="" style="shape=module;jettyWidth=8;jettyHeight=4;" vertex="1" parent="aCL9X1JtN5CGsq-b60nl-12">
          <mxGeometry x="1" width="20" height="20" relative="1" as="geometry">
            <mxPoint x="-27" y="7" as="offset" />
          </mxGeometry>
        </mxCell>
      </root>
    </mxGraphModel>
  </diagram>
</mxfile>
